0
SECTION
2
HEADER
9
$INSUNITS
70
1
9
$ACADVER
1
AC1014
9
$HANDSEED
5
FFFF
0
ENDSEC
0
SECTION
2
TABLES
0
TABLE
2
VPORT
5
8
100
AcDbSymbolTable
0
ENDTAB
0
TABLE
2
LTYPE
5
5
100
AcDbSymbolTable
0
LTYPE
5
14
100
AcDbSymbolTableRecord
100
AcDbLinetypeTableRecord
2
BYBLOCK
70
0
0
LTYPE
5
15
100
AcDbSymbolTableRecord
100
AcDbLinetypeTableRecord
2
BYLAYER
70
0
0
ENDTAB
0
TABLE
2
LAYER
5
2
100
AcDbSymbolTable
70
2
0
LAYER
5
50
100
AcDbSymbolTableRecord
100
AcDbLayerTableRecord
2
0
70
0
6
CONTINUOUS
0
ENDTAB
0
TABLE
2
STYLE
5
3
100
AcDbSymbolTable
70
1
0
STYLE
5
11
100
AcDbSymbolTableRecord
100
AcDbTextStyleTableRecord
2
STANDARD
70
0
0
ENDTAB
0
TABLE
2
VIEW
5
6
100
AcDbSymbolTable
70
0
0
ENDTAB
0
TABLE
2
UCS
5
7
100
AcDbSymbolTable
70
0
0
ENDTAB
0
TABLE
2
APPID
5
9
100
AcDbSymbolTable
70
2
0
APPID
5
12
100
AcDbSymbolTableRecord
100
AcDbRegAppTableRecord
2
ACAD
70
0
0
ENDTAB
0
TABLE
2
DIMSTYLE
5
A
100
AcDbSymbolTable
70
1
0
ENDTAB
0
TABLE
2
BLOCK_RECORD
5
1
100
AcDbSymbolTable
70
1
0
BLOCK_RECORD
5
1F
100
AcDbSymbolTableRecord
100
AcDbBlockTableRecord
2
*MODEL_SPACE
0
BLOCK_RECORD
5
1B
100
AcDbSymbolTableRecord
100
AcDbBlockTableRecord
2
*PAPER_SPACE
0
ENDTAB
0
ENDSEC
0
SECTION
2
BLOCKS
0
BLOCK
5
20
100
AcDbEntity
100
AcDbBlockBegin
2
*MODEL_SPACE
0
ENDBLK
5
21
100
AcDbEntity
100
AcDbBlockEnd
0
BLOCK
5
1C
100
AcDbEntity
100
AcDbBlockBegin
2
*PAPER_SPACE
0
ENDBLK
5
1D
100
AcDbEntity
100
AcDbBlockEnd
0
ENDSEC
0
SECTION
2
ENTITIES
0
LINE
5
100
100
AcDbEntity
8
0
100
AcDbLine
10
-1.2500000078099096
20
-9.8860000617670138
30
0
11
-9.0000000562313502
21
-9.8860000617670138
31
0
0
LINE
5
101
100
AcDbEntity
8
0
100
AcDbLine
10
-9.0000000562313502
20
-9.8860000617670138
30
0
11
-9.0000000562313502
21
-1.8860625117839822
31
0
0
LINE
5
102
100
AcDbEntity
8
0
100
AcDbLine
10
-9.0000000562313502
20
-1.8860625117839822
30
0
11
-1.2500000078099096
21
-1.8860625117839822
31
0
0
LINE
5
103
100
AcDbEntity
8
0
100
AcDbLine
10
-1.2500000078099096
20
-1.8860625117839822
30
0
11
-1.2500000078099096
21
-9.8860000617670138
31
0
0
LINE
5
104
100
AcDbEntity
8
0
100
AcDbLine
10
-1.2500000078099096
20
-9.8860000617670138
30
0
11
-9.0000000562313502
21
-9.8860000617670138
31
0
0
LINE
5
105
100
AcDbEntity
8
0
100
AcDbLine
10
-9.0000000562313502
20
-9.8860000617670138
30
0
11
-9.0000000562313502
21
-1.8860625117839822
31
0
0
LINE
5
106
100
AcDbEntity
8
0
100
AcDbLine
10
-9.0000000562313502
20
-1.8860625117839822
30
0
11
-1.2500000078099096
21
-1.8860625117839822
31
0
0
LINE
5
107
100
AcDbEntity
8
0
100
AcDbLine
10
-1.2500000078099096
20
-1.8860625117839822
30
0
11
-1.2500000078099096
21
-9.8860000617670138
31
0
0
CIRCLE
5
108
100
AcDbEntity
8
0
100
AcDbCircle
10
-2.0015469382161846
20
-9.136325639037949
30
0
40
0.12499999999999993
210
0
220
0
230
1
0
LWPOLYLINE
5
109
100
AcDbEntity
8
0
100
AcDbPolyline
90
4
70
1
43
0.0
10
-8.2515469382161832
20
-9.136325639037949
10
-2.0015469382161846
20
-9.136325639037949
10
-2.0015469382161846
20
-2.6363256390379481
10
-8.2515469382161832
20
-2.6363256390379481
0
CIRCLE
5
110
100
AcDbEntity
8
0
100
AcDbCircle
10
-8.2515469382161832
20
-9.136325639037949
30
0
40
0.1249999999999996
210
0
220
0
230
1
0
CIRCLE
5
111
100
AcDbEntity
8
0
100
AcDbCircle
10
-8.2515469382161832
20
-2.6363256390379481
30
0
40
0.12499999999999975
210
0
220
0
230
1
0
CIRCLE
5
112
100
AcDbEntity
8
0
100
AcDbCircle
10
-2.0015469382161846
20
-2.6363256390379481
30
0
40
0.12499999999999994
210
0
220
0
230
1
0
LINE
5
113
100
AcDbEntity
8
0
100
AcDbLine
10
-1.2500000078099096
20
-5.8860312867754976
30
0
11
-9.0000000562313502
21
-5.8860312867754976
31
0
0
LINE
5
114
100
AcDbEntity
8
0
100
AcDbLine
10
-5.1250000320206297
20
-9.8860000617670138
30
0
11
-5.1250000320206297
21
-1.8860625117839822
31
0
0
LWPOLYLINE
5
115
100
AcDbEntity
8
0
100
AcDbPolyline
90
6
70
1
43
0.0
10
-6.6909352897462027
20
-8.6000567687890772
10
-8.2583826748254818
20
-5.8869043139102093
10
-6.692447417099908
20
-3.1728788318966292
10
-3.5590647742950559
20
-3.1720058047619193
10
-1.9916173892157778
20
-5.8851582596407876
10
-3.557552646941351
20
-8.5991837416543664
0
LINE
5
116
100
AcDbEntity
8
0
100
AcDbLine
10
-7.118420680152254
20
-3.0297775007093608
30
0
11
-7.6188375306266263
21
-3.8965249106945721
31
0
0
LINE
5
117
100
AcDbEntity
8
0
100
AcDbLine
10
-8.092831949493295
20
-7.0483848221754197
30
0
11
-8.2007460745814189
21
-7.1106890713444102
31
0
0
LINE
5
118
100
AcDbEntity
8
0
100
AcDbLine
10
-1.657515321993777
20
-5.586417855546074
30
0
11
-2.1579321724681533
21
-4.7196704455608556
31
0
0
LINE
5
119
100
AcDbEntity
8
0
100
AcDbLine
10
-8.5872784476762476
20
-5.5779079334229431
30
0
11
-8.695192572764368
21
-5.5156036842539518
31
0
0
LINE
5
120
100
AcDbEntity
8
0
100
AcDbLine
10
-3.6503476825237624
20
-9.0352098983493949
30
0
11
-3.6503476825237637
21
-9.1598183966873723
31
0
0
LINE
5
121
100
AcDbEntity
8
0
100
AcDbLine
10
-6.5895346960160506
20
-2.6070881677584934
30
0
11
-5.5887009950673123
21
-2.6070881677584934
31
0
0
LINE
5
122
100
AcDbEntity
8
0
100
AcDbLine
10
-2.1659339375619173
20
-7.0595808259009072
30
0
11
-1.6655170870875511
21
-6.1928334159157039
31
0
0
LINE
5
123
100
AcDbEntity
8
0
100
AcDbLine
10
-7.7292629724059587
20
-7.9233276089526603
30
0
11
-7.6213488473178339
21
-7.8610233597836698
31
0
0
LINE
5
124
100
AcDbEntity
8
0
100
AcDbLine
10
-8.2007460745814189
20
-7.1106890713444102
30
0
11
-8.7011629250557938
21
-6.2439416613591936
31
0
0
LINE
5
125
100
AcDbEntity
8
0
100
AcDbLine
10
-4.6511813834724816
20
-9.1598183966873687
30
0
11
-4.6511813834724816
21
-9.0352098983493896
31
0
0
LINE
5
126
100
AcDbEntity
8
0
100
AcDbLine
10
-2.6339580041371602
20
-7.8742164386440603
30
0
11
-2.5260438790490367
21
-7.9365206878130508
31
0
0
LINE
5
127
100
AcDbEntity
8
0
100
AcDbLine
10
-2.5260438790490367
20
-7.9365206878130508
30
0
11
-3.0264607295234058
21
-8.8032680977982558
31
0
0
LINE
5
128
100
AcDbEntity
8
0
100
AcDbLine
10
-1.5496011969056525
20
-5.5241136063770844
30
0
11
-1.657515321993777
21
-5.586417855546074
31
0
0
LINE
5
129
100
AcDbEntity
8
0
100
AcDbLine
10
-3.648360125367879
20
-2.7296995909615589
30
0
11
-4.6491938263166164
21
-2.7296995909615589
31
0
0
LINE
5
130
100
AcDbEntity
8
0
100
AcDbLine
10
-6.5890949290304119
20
-9.1598183966873634
30
0
11
-6.5890949290304111
21
-9.0338627395647055
31
0
0
LINE
5
131
100
AcDbEntity
8
0
100
AcDbLine
10
-7.6188375306266263
20
-3.8965249106945721
30
0
11
-7.7267516557147475
21
-3.8342206615255785
31
0
0
LINE
5
132
100
AcDbEntity
8
0
100
AcDbLine
10
-4.6491938263166164
20
-2.6050910926235766
30
0
11
-3.6483601253678763
21
-2.605091092623578
31
0
0
LINE
5
133
100
AcDbEntity
8
0
100
AcDbLine
10
-3.134374854611528
20
-8.7409638486292618
30
0
11
-2.6339580041371602
21
-7.8742164386440603
31
0
0
LINE
5
134
100
AcDbEntity
8
0
100
AcDbLine
10
-8.0868615972018745
20
-4.7111605234377318
30
0
11
-8.5872784476762476
21
-5.5779079334229431
31
0
0
LINE
5
135
100
AcDbEntity
8
0
100
AcDbLine
10
-4.6511813834724816
20
-9.0352098983493896
30
0
11
-3.6503476825237624
21
-9.0352098983493949
31
0
0
LINE
5
136
100
AcDbEntity
8
0
100
AcDbLine
10
-5.5895758434764291
20
-9.1598183966873652
30
0
11
-6.5890949290304119
21
-9.1598183966873634
31
0
0
LINE
5
137
100
AcDbEntity
8
0
100
AcDbLine
10
-7.7267516557147475
20
-3.8342206615255785
30
0
11
-7.2263348052403789
21
-2.967473251540369
31
0
0
LINE
5
138
100
AcDbEntity
8
0
100
AcDbLine
10
-8.5932487999676681
20
-6.181637412190204
30
0
11
-8.092831949493295
21
-7.0483848221754197
31
0
0
LINE
5
139
100
AcDbEntity
8
0
100
AcDbLine
10
-3.6483601253678763
20
-2.605091092623578
30
0
11
-3.648360125367879
21
-2.7296995909615589
31
0
0
LINE
5
140
100
AcDbEntity
8
0
100
AcDbLine
10
-7.6213488473178339
20
-7.8610233597836698
30
0
11
-7.120931996843459
21
-8.7277707697688864
31
0
0
LINE
5
141
100
AcDbEntity
8
0
100
AcDbLine
10
-2.1579321724681533
20
-4.7196704455608556
30
0
11
-2.0500180473800285
21
-4.6573661963918651
31
0
0
LINE
5
142
100
AcDbEntity
8
0
100
AcDbLine
10
-7.2263348052403789
20
-2.967473251540369
30
0
11
-7.118420680152254
21
-3.0297775007093608
31
0
0
LINE
5
143
100
AcDbEntity
8
0
100
AcDbLine
10
-3.0264607295234058
20
-8.8032680977982558
30
0
11
-3.134374854611528
21
-8.7409638486292618
31
0
0
LINE
5
144
100
AcDbEntity
8
0
100
AcDbLine
10
-7.2288461219315838
20
-8.7900750189378751
30
0
11
-7.7292629724059587
21
-7.9233276089526603
31
0
0
LINE
5
145
100
AcDbEntity
8
0
100
AcDbLine
10
-8.7011629250557938
20
-6.2439416613591936
30
0
11
-8.5932487999676681
21
-6.181637412190204
31
0
0
LINE
5
146
100
AcDbEntity
8
0
100
AcDbLine
10
-2.5215011495554904
20
-3.8447276587836163
30
0
11
-2.6294152746436148
21
-3.9070319079526055
31
0
0
LINE
5
147
100
AcDbEntity
8
0
100
AcDbLine
10
-2.0580198124737956
20
-7.1218850750699003
30
0
11
-2.1659339375619173
21
-7.0595808259009072
31
0
0
LINE
5
148
100
AcDbEntity
8
0
100
AcDbLine
10
-6.5890949290304111
20
-9.0338627395647055
30
0
11
-5.5895758434764282
21
-9.0338627395647073
31
0
0
LINE
5
149
100
AcDbEntity
8
0
100
AcDbLine
10
-1.5576029619994278
20
-6.255137665084697
30
0
11
-2.0580198124737956
21
-7.1218850750699003
31
0
0
LINE
5
150
100
AcDbEntity
8
0
100
AcDbLine
10
-5.5887009950673123
20
-2.6070881677584934
30
0
11
-5.5887009950673141
21
-2.7316966660964748
31
0
0
LINE
5
151
100
AcDbEntity
8
0
100
AcDbLine
10
-4.6491938263166164
20
-2.7296995909615589
30
0
11
-4.6491938263166164
21
-2.6050910926235766
31
0
0
LINE
5
152
100
AcDbEntity
8
0
100
AcDbLine
10
-5.5895758434764282
20
-9.0338627395647073
30
0
11
-5.5895758434764291
21
-9.1598183966873652
31
0
0
LINE
5
153
100
AcDbEntity
8
0
100
AcDbLine
10
-3.129832125117991
20
-3.0402844979673875
30
0
11
-3.0219180000298667
21
-2.9779802487983971
31
0
0
LINE
5
154
100
AcDbEntity
8
0
100
AcDbLine
10
-6.5895346960160515
20
-2.7316966660964761
30
0
11
-6.5895346960160506
21
-2.6070881677584934
31
0
0
LINE
5
155
100
AcDbEntity
8
0
100
AcDbLine
10
-2.0500180473800285
20
-4.6573661963918651
30
0
11
-1.5496011969056525
21
-5.5241136063770844
31
0
0
LINE
5
156
100
AcDbEntity
8
0
100
AcDbLine
10
-5.5887009950673141
20
-2.7316966660964748
30
0
11
-6.5895346960160515
21
-2.7316966660964761
31
0
0
LINE
5
157
100
AcDbEntity
8
0
100
AcDbLine
10
-2.6294152746436148
20
-3.9070319079526055
30
0
11
-3.129832125117991
21
-3.0402844979673875
31
0
0
LINE
5
158
100
AcDbEntity
8
0
100
AcDbLine
10
-3.0219180000298667
20
-2.9779802487983971
30
0
11
-2.5215011495554904
21
-3.8447276587836163
31
0
0
LINE
5
159
100
AcDbEntity
8
0
100
AcDbLine
10
-8.695192572764368
20
-5.5156036842539518
30
0
11
-8.1947757222899966
21
-4.6488562742687396
31
0
0
LINE
5
160
100
AcDbEntity
8
0
100
AcDbLine
10
-8.1947757222899966
20
-4.6488562742687396
30
0
11
-8.0868615972018745
21
-4.7111605234377318
31
0
0
LINE
5
161
100
AcDbEntity
8
0
100
AcDbLine
10
-7.120931996843459
20
-8.7277707697688864
30
0
11
-7.2288461219315838
21
-8.7900750189378751
31
0
0
LINE
5
162
100
AcDbEntity
8
0
100
AcDbLine
10
-1.6655170870875511
20
-6.1928334159157039
30
0
11
-1.5576029619994278
21
-6.255137665084697
31
0
0
LINE
5
163
100
AcDbEntity
8
0
100
AcDbLine
10
-3.6503476825237637
20
-9.1598183966873723
30
0
11
-4.6511813834724816
21
-9.1598183966873687
31
0
0
LINE
5
164
100
AcDbEntity
8
0
100
AcDbLine
10
-3.648360125367879
20
-2.7296995909615589
30
0
11
-4.6491938263166164
21
-2.6050910926235766
31
0
0
LINE
5
165
100
AcDbEntity
8
0
100
AcDbLine
10
-4.6491938263166164
20
-2.7296995909615589
30
0
11
-3.6483601253678763
21
-2.605091092623578
31
0
0
LINE
5
166
100
AcDbEntity
8
0
100
AcDbLine
10
-5.5887009950673141
20
-2.7316966660964748
30
0
11
-6.5895346960160506
21
-2.6070881677584934
31
0
0
LINE
5
167
100
AcDbEntity
8
0
100
AcDbLine
10
-6.5895346960160515
20
-2.7316966660964761
30
0
11
-5.5887009950673123
21
-2.6070881677584934
31
0
0
LINE
5
168
100
AcDbEntity
8
0
100
AcDbLine
10
-7.6188375306266263
20
-3.8965249106945721
30
0
11
-7.2263348052403789
21
-2.967473251540369
31
0
0
LINE
5
169
100
AcDbEntity
8
0
100
AcDbLine
10
-7.118420680152254
20
-3.0297775007093608
30
0
11
-7.7267516557147475
21
-3.8342206615255785
31
0
0
LINE
5
170
100
AcDbEntity
8
0
100
AcDbLine
10
-8.5872784476762476
20
-5.5779079334229431
30
0
11
-8.1947757222899966
21
-4.6488562742687396
31
0
0
LINE
5
171
100
AcDbEntity
8
0
100
AcDbLine
10
-8.0868615972018745
20
-4.7111605234377318
30
0
11
-8.695192572764368
21
-5.5156036842539518
31
0
0
LINE
5
172
100
AcDbEntity
8
0
100
AcDbLine
10
-8.5932487999676681
20
-6.181637412190204
30
0
11
-8.2007460745814189
21
-7.1106890713444102
31
0
0
LINE
5
173
100
AcDbEntity
8
0
100
AcDbLine
10
-8.092831949493295
20
-7.0483848221754197
30
0
11
-8.7011629250557938
21
-6.2439416613591936
31
0
0
LINE
5
174
100
AcDbEntity
8
0
100
AcDbLine
10
-7.2288461219315838
20
-8.7900750189378751
30
0
11
-7.6213488473178339
21
-7.8610233597836698
31
0
0
LINE
5
175
100
AcDbEntity
8
0
100
AcDbLine
10
-7.7292629724059587
20
-7.9233276089526603
30
0
11
-7.120931996843459
21
-8.7277707697688864
31
0
0
LINE
5
176
100
AcDbEntity
8
0
100
AcDbLine
10
-6.5890949290304119
20
-9.1598183966873634
30
0
11
-5.5895758434764282
21
-9.0338627395647073
31
0
0
LINE
5
177
100
AcDbEntity
8
0
100
AcDbLine
10
-5.5895758434764291
20
-9.1598183966873652
30
0
11
-6.5890949290304111
21
-9.0338627395647055
31
0
0
LINE
5
178
100
AcDbEntity
8
0
100
AcDbLine
10
-4.6511813834724816
20
-9.1598183966873687
30
0
11
-3.6503476825237624
21
-9.0352098983493949
31
0
0
LINE
5
179
100
AcDbEntity
8
0
100
AcDbLine
10
-3.6503476825237637
20
-9.1598183966873723
30
0
11
-4.6511813834724816
21
-9.0352098983493896
31
0
0
LINE
5
180
100
AcDbEntity
8
0
100
AcDbLine
10
-3.0264607295234058
20
-8.8032680977982558
30
0
11
-2.6339580041371602
21
-7.8742164386440603
31
0
0
LINE
5
181
100
AcDbEntity
8
0
100
AcDbLine
10
-2.5260438790490367
20
-7.9365206878130508
30
0
11
-3.134374854611528
21
-8.7409638486292618
31
0
0
LINE
5
182
100
AcDbEntity
8
0
100
AcDbLine
10
-2.0580198124737956
20
-7.1218850750699003
30
0
11
-1.6655170870875511
21
-6.1928334159157039
31
0
0
LINE
5
183
100
AcDbEntity
8
0
100
AcDbLine
10
-1.5576029619994278
20
-6.255137665084697
30
0
11
-2.1659339375619173
21
-7.0595808259009072
31
0
0
LINE
5
184
100
AcDbEntity
8
0
100
AcDbLine
10
-1.657515321993777
20
-5.586417855546074
30
0
11
-2.0500180473800285
21
-4.6573661963918651
31
0
0
LINE
5
185
100
AcDbEntity
8
0
100
AcDbLine
10
-2.1579321724681533
20
-4.7196704455608556
30
0
11
-1.5496011969056525
21
-5.5241136063770844
31
0
0
LINE
5
186
100
AcDbEntity
8
0
100
AcDbLine
10
-2.6294152746436148
20
-3.9070319079526055
30
0
11
-3.0219180000298667
21
-2.9779802487983971
31
0
0
LINE
5
187
100
AcDbEntity
8
0
100
AcDbLine
10
-2.5215011495554904
20
-3.8447276587836163
30
0
11
-3.129832125117991
21
-3.0402844979673875
31
0
0
ENDSEC
0
SECTION
2
OBJECTS
0
DICTIONARY
5
C
100
AcDbDictionary
3
ACAD_GROUP
350
D
3
ACAD_MLINESTYLE
350
17
0
DICTIONARY
5
D
100
AcDbDictionary
0
DICTIONARY
5
1A
330
C
100
AcDbDictionary
0
DICTIONARY
5
17
100
AcDbDictionary
0
ENDSEC
0
EOF
